<svg width="40" height="40" viewBox="0 0 40 40" fill="none" xmlns="http://www.w3.org/2000/svg">
<path fill-rule="evenodd" clip-rule="evenodd" d="M18.0732 12.5641C15.9976 10.4786 12.6343 10.4786 10.5587 12.5641C8.48045 14.6521 8.48045 18.0394 10.5587 20.1274L18.9574 28.5657C19.5337 29.1448 20.4663 29.1448 21.0426 28.5657L29.4413 20.1274C31.5196 18.0394 31.5196 14.6521 29.4413 12.5641C27.3657 10.4786 24.0024 10.4786 21.9268 12.5641L20.7088 13.7878C20.5211 13.9764 20.266 14.0824 20 14.0824C19.734 14.0824 19.4789 13.9764 19.2912 13.7878L18.0732 12.5641ZM9.14113 11.1532C11.9986 8.28227 16.6333 8.28227 19.4908 11.1532L20 11.6648L20.5092 11.1532C23.3667 8.28228 28.0014 8.28227 30.8589 11.1532C33.7137 14.0215 33.7137 18.67 30.8589 21.5383L22.4602 29.9766C21.102 31.3411 18.898 31.3411 17.5398 29.9766L9.14113 21.5383C6.28629 18.67 6.28629 14.0215 9.14113 11.1532Z" fill="#171523"/>
</svg>
