<svg width="32" height="32" viewBox="0 0 32 32" fill="none" xmlns="http://www.w3.org/2000/svg">
<path fill-rule="evenodd" clip-rule="evenodd" d="M16.0067 7.20013C15.9194 7.19939 15.832 7.21306 15.748 7.24118L10.148 9.1163C9.82267 9.22525 9.6 9.53268 9.6 9.88246V15.0696C9.6 16.7019 9.98245 18.3111 10.7162 19.7671C11.7279 21.7745 13.36 23.3975 15.3669 24.393L15.6805 24.5486C15.7833 24.5996 15.8949 24.6245 16.0063 24.6235C16.1136 24.6226 16.2206 24.5977 16.3195 24.5486L16.6331 24.393C18.64 23.3975 20.2721 21.7745 21.2838 19.7671C22.0176 18.3111 22.4 16.7019 22.4 15.0696V9.88246C22.4 9.53268 22.1773 9.22525 21.852 9.1163L16.252 7.24118C16.1723 7.21449 16.0895 7.20082 16.0067 7.20013ZM15.24 5.72397C15.4931 5.63925 15.7567 5.59797 16.0201 5.60018C16.2701 5.60229 16.5198 5.64356 16.76 5.72397L22.36 7.59909C23.3413 7.92768 24 8.84864 24 9.88246V15.0696C24 16.9517 23.559 18.8076 22.7126 20.4872C21.5456 22.8028 19.6621 24.6765 17.3441 25.8264L17.0305 25.9819C16.7122 26.1398 16.3666 26.2204 16.0205 26.2235C15.6607 26.2266 15.3003 26.146 14.9695 25.9819L14.6559 25.8264C12.3379 24.6765 10.4544 22.8028 9.28742 20.4872C8.44097 18.8076 8 16.9517 8 15.0696V9.88246C8 8.84863 8.65871 7.92768 9.64002 7.59909L15.24 5.72397ZM19.7644 12.9788C20.0775 13.2905 20.0787 13.797 19.767 14.1102L15.767 18.1283C15.6168 18.2791 15.4128 18.3639 15.2 18.3639C14.9872 18.3639 14.7832 18.2791 14.633 18.1283L13.033 16.521C12.7213 16.2079 12.7225 15.7014 13.0356 15.3897C13.3487 15.078 13.8552 15.0791 14.167 15.3922L15.2 16.4299L18.633 12.9814C18.9448 12.6682 19.4513 12.6671 19.7644 12.9788Z" fill="black"/>
</svg>
