<svg width="32" height="32" viewBox="0 0 32 32" fill="none" xmlns="http://www.w3.org/2000/svg">
<path fill-rule="evenodd" clip-rule="evenodd" d="M12 9.5999C12 7.83259 13.4327 6.3999 15.2 6.3999H16.8C18.5673 6.3999 20 7.83259 20 9.5999V10.4028C21.1216 10.4137 21.9149 10.4645 22.6001 10.6971C24.2486 11.2567 25.5432 12.5513 26.1028 14.1998C26.4006 15.077 26.4004 16.1313 26.4 17.8248C26.4 17.8824 26.4 17.9408 26.4 17.9999C26.4 18.059 26.4 18.1174 26.4 18.175C26.4004 19.8685 26.4006 20.9228 26.1028 21.8C25.5432 23.4486 24.2486 24.7431 22.6001 25.3027C21.7229 25.6005 20.6686 25.6003 18.9751 25.5999C18.9175 25.5999 18.8591 25.5999 18.8 25.5999H13.2C13.1409 25.5999 13.0825 25.5999 13.0249 25.5999C11.3314 25.6003 10.2771 25.6005 9.39994 25.3027C7.75135 24.7431 6.45681 23.4486 5.89719 21.8C5.59943 20.9228 5.59964 19.8685 5.59997 18.175C5.59999 18.1174 5.6 18.059 5.6 17.9999C5.6 17.9408 5.59999 17.8824 5.59997 17.8248C5.59964 16.1313 5.59943 15.077 5.89719 14.1998C6.45681 12.5513 7.75135 11.2567 9.39994 10.6971C10.0851 10.4645 10.8784 10.4137 12 10.4028V9.5999ZM13.6 10.3999H18.4V9.5999C18.4 8.71625 17.6837 7.9999 16.8 7.9999H15.2C14.3163 7.9999 13.6 8.71625 13.6 9.5999V10.3999ZM13.2 11.9999C11.2733 11.9999 10.5081 12.0106 9.91424 12.2122C8.73668 12.6119 7.81201 13.5366 7.41228 14.7141C7.2107 15.308 7.2 16.0733 7.2 17.9999C7.2 19.9266 7.2107 20.6918 7.41228 21.2857C7.81201 22.4632 8.73668 23.3879 9.91424 23.7876C10.5081 23.9892 11.2733 23.9999 13.2 23.9999H18.8C20.7266 23.9999 21.4919 23.9892 22.0858 23.7876C23.2633 23.3879 24.188 22.4632 24.5877 21.2857C24.7893 20.6918 24.8 19.9266 24.8 17.9999C24.8 16.0733 24.7893 15.308 24.5877 14.7141C24.188 13.5366 23.2633 12.6119 22.0858 12.2122C21.4919 12.0106 20.7266 11.9999 18.8 11.9999H13.2Z" fill="#171523"/>
<path d="M12 14.3999C12 14.2512 12 14.1768 12.0123 14.115C12.0628 13.8611 12.2613 13.6627 12.5151 13.6122C12.577 13.5999 12.6513 13.5999 12.8 13.5999C12.9487 13.5999 13.023 13.5999 13.0849 13.6122C13.3387 13.6627 13.5372 13.8611 13.5877 14.115C13.6 14.1768 13.6 14.2512 13.6 14.3999C13.6 14.5485 13.6 14.6229 13.5877 14.6847C13.5372 14.9386 13.3387 15.1371 13.0849 15.1876C13.023 15.1999 12.9487 15.1999 12.8 15.1999C12.6513 15.1999 12.577 15.1999 12.5151 15.1876C12.2613 15.1371 12.0628 14.9386 12.0123 14.6847C12 14.6229 12 14.5485 12 14.3999Z" fill="black"/>
<path d="M18.4 14.3999C18.4 14.2512 18.4 14.1768 18.4123 14.115C18.4628 13.8611 18.6613 13.6627 18.9151 13.6122C18.977 13.5999 19.0513 13.5999 19.2 13.5999C19.3487 13.5999 19.423 13.5999 19.4849 13.6122C19.7387 13.6627 19.9372 13.8611 19.9877 14.115C20 14.1768 20 14.2512 20 14.3999C20 14.5485 20 14.6229 19.9877 14.6847C19.9372 14.9386 19.7387 15.1371 19.4849 15.1876C19.423 15.1999 19.3487 15.1999 19.2 15.1999C19.0513 15.1999 18.977 15.1999 18.9151 15.1876C18.6613 15.1371 18.4628 14.9386 18.4123 14.6847C18.4 14.6229 18.4 14.5485 18.4 14.3999Z" fill="black"/>
</svg>
