<svg width="32" height="32" viewBox="0 0 32 32" fill="none" xmlns="http://www.w3.org/2000/svg">
<path fill-rule="evenodd" clip-rule="evenodd" d="M10.3887 5.6001H10.4462C11.0584 5.60009 11.5594 5.60009 11.9685 5.62891C12.3914 5.65871 12.776 5.72217 13.1428 5.87963C13.9584 6.22983 14.6077 6.88115 14.9565 7.69784C15.1133 8.06484 15.1765 8.44972 15.2062 8.8734C15.2349 9.28331 15.2349 9.78552 15.2349 10.3995V10.4566C15.2349 11.0706 15.2349 11.5729 15.2062 11.9828C15.1765 12.4064 15.1133 12.7913 14.9565 13.1583C14.6077 13.975 13.9584 14.6263 13.1428 14.9765C12.776 15.134 12.3914 15.1975 11.9685 15.2273C11.5594 15.2561 11.0584 15.2561 10.4462 15.2561H10.3887C9.77652 15.2561 9.27544 15.2561 8.8664 15.2273C8.44344 15.1975 8.05888 15.134 7.69213 14.9765C6.87647 14.6263 6.22719 13.975 5.87838 13.1583C5.72163 12.7913 5.65842 12.4064 5.62872 11.9828C5.59999 11.5729 5.6 11.0707 5.60001 10.4567V10.3995C5.6 9.78551 5.59999 9.2833 5.62872 8.8734C5.65842 8.44972 5.72163 8.06484 5.87838 7.69784C6.22719 6.88115 6.87647 6.22983 7.69213 5.87963C8.05888 5.72217 8.44344 5.65871 8.8664 5.62891C9.27545 5.60009 9.77653 5.60009 10.3887 5.6001ZM8.97886 7.22495C8.64024 7.24881 8.45655 7.29267 8.32337 7.34985C7.88629 7.53751 7.53744 7.88695 7.34979 8.32628C7.29246 8.46052 7.24863 8.6454 7.22481 8.98528C7.20046 9.3326 7.20001 9.77856 7.20001 10.4281C7.20001 11.0776 7.20046 11.5236 7.22481 11.8709C7.24863 12.2108 7.29246 12.3956 7.34979 12.5299C7.53744 12.9692 7.88629 13.3187 8.32337 13.5063C8.45655 13.5635 8.64024 13.6074 8.97886 13.6312C9.325 13.6556 9.76954 13.6561 10.4174 13.6561C11.0653 13.6561 11.5099 13.6556 11.856 13.6312C12.1946 13.6074 12.3783 13.5635 12.5115 13.5063C12.9486 13.3187 13.2974 12.9692 13.4851 12.5299C13.5424 12.3956 13.5863 12.2108 13.6101 11.8709C13.6344 11.5236 13.6349 11.0776 13.6349 10.4281C13.6349 9.77857 13.6344 9.3326 13.6101 8.98528C13.5863 8.6454 13.5424 8.46052 13.4851 8.32628C13.2974 7.88695 12.9486 7.53751 12.5115 7.34985C12.3783 7.29267 12.1946 7.24881 11.856 7.22495C11.5099 7.20056 11.0653 7.2001 10.4174 7.2001C9.76954 7.2001 9.325 7.20056 8.97886 7.22495ZM21.5539 5.6001H21.6113C22.2235 5.60009 22.7246 5.60009 23.1336 5.62891C23.5566 5.65871 23.9411 5.72217 24.3079 5.87963C25.1235 6.22983 25.7728 6.88115 26.1216 7.69784C26.2784 8.06484 26.3416 8.44971 26.3713 8.8734C26.4 9.28332 26.4 9.78554 26.4 10.3996V10.4566C26.4 11.0706 26.4 11.5728 26.3713 11.9828C26.3416 12.4064 26.2784 12.7913 26.1216 13.1583C25.7728 13.975 25.1235 14.6263 24.3079 14.9765C23.9411 15.134 23.5566 15.1975 23.1336 15.2273C22.7246 15.2561 22.2235 15.2561 21.6113 15.2561H21.5538C20.9416 15.2561 20.4406 15.2561 20.0315 15.2273C19.6086 15.1975 19.224 15.134 18.8573 14.9765C18.0416 14.6263 17.3923 13.975 17.0435 13.1583C16.8868 12.7913 16.8235 12.4064 16.7938 11.9828C16.7651 11.5729 16.7651 11.0706 16.7651 10.4567V10.3995C16.7651 9.78552 16.7651 9.28331 16.7938 8.8734C16.8235 8.44972 16.8868 8.06484 17.0435 7.69784C17.3923 6.88115 18.0416 6.22983 18.8573 5.87963C19.224 5.72217 19.6086 5.65871 20.0315 5.62891C20.4406 5.60009 20.9417 5.60009 21.5539 5.6001ZM20.144 7.22495C19.8054 7.24881 19.6217 7.29267 19.4885 7.34985C19.0514 7.53751 18.7026 7.88695 18.5149 8.32628C18.4576 8.46052 18.4138 8.6454 18.3899 8.98528C18.3656 9.3326 18.3651 9.77857 18.3651 10.4281C18.3651 11.0776 18.3656 11.5236 18.3899 11.8709C18.4138 12.2108 18.4576 12.3956 18.5149 12.5299C18.7026 12.9692 19.0514 13.3187 19.4885 13.5063C19.6217 13.5635 19.8054 13.6074 20.144 13.6312C20.4901 13.6556 20.9347 13.6561 21.5826 13.6561C22.2305 13.6561 22.675 13.6556 23.0212 13.6312C23.3598 13.6074 23.5435 13.5635 23.6766 13.5063C24.1137 13.3187 24.4626 12.9692 24.6502 12.5299C24.7075 12.3956 24.7514 12.2108 24.7752 11.8709C24.7995 11.5236 24.8 11.0776 24.8 10.4281C24.8 9.77857 24.7995 9.3326 24.7752 8.98528C24.7514 8.6454 24.7075 8.46052 24.6502 8.32628C24.4626 7.88695 24.1137 7.53751 23.6766 7.34985C23.5435 7.29267 23.3598 7.24881 23.0212 7.22495C22.675 7.20056 22.2305 7.2001 21.5826 7.2001C20.9347 7.2001 20.4901 7.20056 20.144 7.22495ZM10.3887 16.7441H10.4462C11.0584 16.7441 11.5594 16.7441 11.9685 16.7729C12.3914 16.8027 12.776 16.8662 13.1428 17.0237C13.9584 17.3739 14.6077 18.0252 14.9565 18.8419C15.1133 19.2089 15.1765 19.5937 15.2062 20.0174C15.2349 20.4273 15.2349 20.9296 15.2349 21.5435V21.6007C15.2349 22.2147 15.2349 22.7169 15.2062 23.1268C15.1765 23.5505 15.1133 23.9354 14.9565 24.3024C14.6077 25.119 13.9584 25.7704 13.1428 26.1206C12.776 26.278 12.3914 26.3415 11.9685 26.3713C11.5594 26.4001 11.0584 26.4001 10.4462 26.4001H10.3887C9.77652 26.4001 9.27544 26.4001 8.8664 26.3713C8.44344 26.3415 8.05887 26.278 7.69213 26.1206C6.87647 25.7704 6.22719 25.119 5.87838 24.3024C5.72163 23.9354 5.65842 23.5505 5.62872 23.1268C5.59999 22.7169 5.6 22.2147 5.60001 21.6007V21.5435C5.6 20.9295 5.59999 20.4273 5.62872 20.0174C5.65842 19.5937 5.72163 19.2089 5.87838 18.8419C6.22719 18.0252 6.87647 17.3739 7.69213 17.0237C8.05888 16.8662 8.44344 16.8027 8.8664 16.7729C9.27544 16.7441 9.77652 16.7441 10.3887 16.7441ZM8.97886 18.369C8.64024 18.3928 8.45655 18.4367 8.32337 18.4939C7.88629 18.6815 7.53744 19.031 7.34979 19.4703C7.29246 19.6046 7.24863 19.7894 7.22481 20.1293C7.20046 20.4766 7.20001 20.9226 7.20001 21.5721C7.20001 22.2216 7.20046 22.6676 7.22481 23.0149C7.24863 23.3548 7.29246 23.5397 7.34979 23.6739C7.53744 24.1132 7.88629 24.4627 8.32337 24.6503C8.45655 24.7075 8.64024 24.7514 8.97886 24.7752C9.325 24.7996 9.76954 24.8001 10.4174 24.8001C11.0653 24.8001 11.5099 24.7996 11.856 24.7752C12.1946 24.7514 12.3783 24.7075 12.5115 24.6503C12.9486 24.4627 13.2974 24.1132 13.4851 23.6739C13.5424 23.5397 13.5863 23.3548 13.6101 23.0149C13.6344 22.6676 13.6349 22.2216 13.6349 21.5721C13.6349 20.9226 13.6344 20.4766 13.6101 20.1293C13.5863 19.7894 13.5424 19.6046 13.4851 19.4703C13.2974 19.031 12.9486 18.6815 12.5115 18.4939C12.3783 18.4367 12.1946 18.3928 11.856 18.369C11.5099 18.3446 11.0653 18.3441 10.4174 18.3441C9.76954 18.3441 9.325 18.3446 8.97886 18.369ZM21.5538 16.7441H21.6113C22.2235 16.7441 22.7246 16.7441 23.1336 16.7729C23.5566 16.8027 23.9411 16.8662 24.3079 17.0237C25.1235 17.3739 25.7728 18.0252 26.1216 18.8419C26.2784 19.2089 26.3416 19.5937 26.3713 20.0174C26.4 20.4274 26.4 20.9296 26.4 21.5436V21.6006C26.4 22.2146 26.4 22.7169 26.3713 23.1268C26.3416 23.5505 26.2784 23.9354 26.1216 24.3024C25.7728 25.119 25.1235 25.7704 24.3079 26.1206C23.9411 26.278 23.5566 26.3415 23.1336 26.3713C22.7246 26.4001 22.2235 26.4001 21.6113 26.4001H21.5538C20.9416 26.4001 20.4406 26.4001 20.0315 26.3713C19.6086 26.3415 19.224 26.278 18.8573 26.1206C18.0416 25.7704 17.3923 25.119 17.0435 24.3024C16.8868 23.9354 16.8235 23.5505 16.7938 23.1268C16.7651 22.7169 16.7651 22.2147 16.7651 21.6007V21.5435C16.7651 20.9296 16.7651 20.4273 16.7938 20.0174C16.8235 19.5937 16.8868 19.2089 17.0435 18.8419C17.3923 18.0252 18.0416 17.3739 18.8573 17.0237C19.224 16.8662 19.6086 16.8027 20.0315 16.7729C20.4406 16.7441 20.9416 16.7441 21.5538 16.7441ZM20.144 18.369C19.8054 18.3928 19.6217 18.4367 19.4885 18.4939C19.0514 18.6815 18.7026 19.031 18.5149 19.4703C18.4576 19.6046 18.4138 19.7894 18.3899 20.1293C18.3656 20.4766 18.3651 20.9226 18.3651 21.5721C18.3651 22.2216 18.3656 22.6676 18.3899 23.0149C18.4138 23.3548 18.4576 23.5397 18.5149 23.6739C18.7026 24.1132 19.0514 24.4627 19.4885 24.6503C19.6217 24.7075 19.8054 24.7514 20.144 24.7752C20.4901 24.7996 20.9347 24.8001 21.5826 24.8001C22.2305 24.8001 22.675 24.7996 23.0212 24.7752C23.3598 24.7514 23.5435 24.7075 23.6766 24.6503C24.1137 24.4627 24.4626 24.1132 24.6502 23.6739C24.7075 23.5397 24.7514 23.3548 24.7752 23.0149C24.7995 22.6676 24.8 22.2216 24.8 21.5721C24.8 20.9226 24.7995 20.4766 24.7752 20.1293C24.7514 19.7894 24.7075 19.6046 24.6502 19.4703C24.4626 19.031 24.1137 18.6815 23.6766 18.4939C23.5435 18.4367 23.3598 18.3928 23.0212 18.369C22.675 18.3446 22.2305 18.3441 21.5826 18.3441C20.9347 18.3441 20.4901 18.3446 20.144 18.369Z" fill="#171523"/>
</svg>
