<svg width="32" height="32" viewBox="0 0 32 32" fill="none" xmlns="http://www.w3.org/2000/svg">
<path fill-rule="evenodd" clip-rule="evenodd" d="M7.01188 8.93426C7.42613 7.88991 8.43195 7.19995 9.55604 7.19995H22.444C23.568 7.19995 24.5739 7.88991 24.9881 8.93426L26.0236 11.5449C26.1674 11.9073 26.3265 12.3603 26.3805 12.8331C26.4356 13.3162 26.3871 13.8761 26.053 14.3919C25.5667 15.1425 24.7215 15.6444 23.7569 15.6444C22.9973 15.6444 22.3126 15.3344 21.8176 14.835C21.3227 15.3344 20.638 15.6444 19.8784 15.6444C19.1189 15.6444 18.4341 15.3344 17.9392 14.835C17.4443 15.3344 16.7595 15.6444 16 15.6444C15.2405 15.6444 14.5557 15.3344 14.0608 14.835C13.5659 15.3344 12.8811 15.6444 12.1216 15.6444C11.362 15.6444 10.6772 15.3344 10.1823 14.835C9.68743 15.3344 9.00266 15.6444 8.24312 15.6444C7.27849 15.6444 6.43325 15.1425 5.94699 14.3919C5.61289 13.8761 5.56435 13.3162 5.61952 12.8331C5.67352 12.3603 5.8326 11.9073 5.97637 11.5449L7.01188 8.93426ZM10.9823 12.8888C10.9823 13.5334 11.4987 14.0444 12.1216 14.0444C12.7444 14.0444 13.2608 13.5334 13.2608 12.8888C13.2608 12.447 13.6189 12.0888 14.0608 12.0888C14.5026 12.0888 14.8608 12.447 14.8608 12.8888C14.8608 13.5334 15.3771 14.0444 16 14.0444C16.6229 14.0444 17.1392 13.5334 17.1392 12.8888C17.1392 12.447 17.4974 12.0888 17.9392 12.0888C18.381 12.0888 18.7392 12.447 18.7392 12.8888C18.7392 13.5334 19.2556 14.0444 19.8784 14.0444C20.5013 14.0444 21.0176 13.5334 21.0176 12.8888C21.0176 12.447 21.3758 12.0888 21.8176 12.0888C22.2595 12.0888 22.6176 12.447 22.6176 12.8888C22.6176 13.5334 23.134 14.0444 23.7569 14.0444C24.1526 14.0444 24.5041 13.84 24.7101 13.522C24.7808 13.4129 24.8189 13.2607 24.7908 13.0147C24.7615 12.7585 24.6675 12.4653 24.5364 12.1348L23.5008 9.5242C23.3261 9.08366 22.9058 8.79995 22.444 8.79995H9.55604C9.09421 8.79995 8.67389 9.08366 8.49915 9.5242L7.46364 12.1348C7.33253 12.4653 7.23844 12.7585 7.20918 13.0147C7.18109 13.2607 7.2192 13.4129 7.28986 13.522C7.4959 13.84 7.84742 14.0444 8.24312 14.0444C8.86598 14.0444 9.38234 13.5334 9.38234 12.8888C9.38234 12.447 9.74051 12.0888 10.1823 12.0888C10.6242 12.0888 10.9823 12.447 10.9823 12.8888ZM10.1823 17.5111C10.6242 17.5111 10.9823 17.8692 10.9823 18.3111V23.2H21.0176V18.3111C21.0176 17.8692 21.3758 17.5111 21.8176 17.5111C22.2595 17.5111 22.6176 17.8692 22.6176 18.3111V23.2H24.7265C25.1683 23.2 25.5265 23.5581 25.5265 24C25.5265 24.4418 25.1683 24.7999 24.7265 24.7999H7.27351C6.83168 24.7999 6.47351 24.4418 6.47351 24C6.47351 23.5581 6.83168 23.2 7.27351 23.2H9.38234V18.3111C9.38234 17.8692 9.74051 17.5111 10.1823 17.5111Z" fill="#171523"/>
</svg>
