<svg width="32" height="32" viewBox="0 0 32 32" fill="none" xmlns="http://www.w3.org/2000/svg">
<path fill-rule="evenodd" clip-rule="evenodd" d="M5.59961 15.9996C5.59961 10.2558 10.2558 5.59961 15.9996 5.59961C21.7434 5.59961 26.3996 10.2558 26.3996 15.9996V22.8937C26.3996 23.3968 26.3996 23.8306 26.3652 24.1856C26.3288 24.5616 26.2478 24.9326 26.0317 25.2765C25.8399 25.5818 25.5818 25.8399 25.2765 26.0317C24.9326 26.2478 24.5616 26.3288 24.1856 26.3652C23.8306 26.3996 23.3968 26.3996 22.8937 26.3996H15.9996C10.2558 26.3996 5.59961 21.7434 5.59961 15.9996ZM15.9996 7.19961C11.1395 7.19961 7.19961 11.1395 7.19961 15.9996C7.19961 20.8597 11.1395 24.7996 15.9996 24.7996H22.8568C23.4072 24.7996 23.7627 24.7987 24.0312 24.7727C24.2874 24.7478 24.3789 24.7061 24.4252 24.677C24.527 24.613 24.613 24.527 24.677 24.4252C24.7061 24.3789 24.7478 24.2874 24.7727 24.0312C24.7987 23.7627 24.7996 23.4072 24.7996 22.8568V15.9996C24.7996 11.1395 20.8597 7.19961 15.9996 7.19961Z" fill="black"/>
<path d="M14.4 16.3992C14.4 17.062 13.8627 17.5992 13.2 17.5992C12.5373 17.5992 12 17.062 12 16.3992C12 15.7365 12.5373 15.1992 13.2 15.1992C13.8627 15.1992 14.4 15.7365 14.4 16.3992Z" fill="black"/>
<path d="M20 16.3992C20 17.062 19.4627 17.5992 18.8 17.5992C18.1373 17.5992 17.6 17.062 17.6 16.3992C17.6 15.7365 18.1373 15.1992 18.8 15.1992C19.4627 15.1992 20 15.7365 20 16.3992Z" fill="black"/>
</svg>
