<svg width="24" height="25" viewBox="0 0 24 25" fill="none" xmlns="http://www.w3.org/2000/svg">
<path fill-rule="evenodd" clip-rule="evenodd" d="M11.9504 4.7002H12.0496C13.0977 4.70018 13.8679 4.70016 14.4714 4.78106C14.8108 4.82655 15.1164 4.89943 15.4073 5.0199C16.4364 5.44618 17.254 6.26381 17.6803 7.29293C17.8526 7.70901 17.928 8.157 17.9644 8.68959C18 9.21211 18 9.85811 18 10.6781V14.3223C18 15.1423 18 15.7883 17.9644 16.3108C17.928 16.8434 17.8526 17.2914 17.6803 17.7075C17.254 18.7366 16.4364 19.5542 15.4073 19.9805C14.9912 20.1528 14.5432 20.2282 14.0106 20.2645C13.4881 20.3002 12.8421 20.3002 12.0221 20.3002H11.9779C11.1579 20.3002 10.5119 20.3002 9.9894 20.2645C9.4568 20.2282 9.00881 20.1528 8.59273 19.9805C7.56361 19.5542 6.74598 18.7366 6.31971 17.7075C6.14736 17.2914 6.07198 16.8434 6.03565 16.3108C5.99999 15.7883 6 15.1423 6 14.3223V10.6781C6 9.85811 5.99999 9.21211 6.03565 8.68959C6.07198 8.157 6.14736 7.70901 6.31971 7.29293C6.74598 6.26381 7.56361 5.44618 8.59273 5.0199C8.88358 4.89943 9.1892 4.82655 9.52862 4.78106C10.1321 4.70016 10.9023 4.70018 11.9504 4.7002ZM15.2421 6.26952C15.0863 6.75155 14.6339 7.1002 14.1 7.1002H9.9C9.36612 7.1002 8.91367 6.75155 8.75791 6.26952C8.16169 6.59634 7.69102 7.11804 7.42836 7.75215C7.32667 7.99764 7.26503 8.29978 7.23286 8.77128C7.20033 9.24816 7.2 9.85329 7.2 10.7002V14.3002C7.2 15.1471 7.20033 15.7522 7.23286 16.2291C7.26503 16.7006 7.32667 17.0028 7.42836 17.2482C7.73284 17.9833 8.31687 18.5674 9.05195 18.8718C9.29744 18.9735 9.59959 19.0352 10.0711 19.0673C10.548 19.0999 11.1531 19.1002 12 19.1002C12.8469 19.1002 13.452 19.0999 13.9289 19.0673C14.4004 19.0352 14.7026 18.9735 14.9481 18.8718C15.6831 18.5674 16.2672 17.9833 16.5716 17.2482C16.6733 17.0028 16.735 16.7006 16.7671 16.2291C16.7997 15.7522 16.8 15.1471 16.8 14.3002V10.7002C16.8 9.85329 16.7997 9.24816 16.7671 8.77128C16.735 8.29978 16.6733 7.99764 16.5716 7.75215C16.309 7.11804 15.8383 6.59634 15.2421 6.26952ZM9.6 17.3002C9.6 16.9688 9.86863 16.7002 10.2 16.7002H13.8C14.1314 16.7002 14.4 16.9688 14.4 17.3002C14.4 17.6316 14.1314 17.9002 13.8 17.9002H10.2C9.86863 17.9002 9.6 17.6316 9.6 17.3002Z" fill="#171523"/>
</svg>
