<svg width="57" height="56" viewBox="0 0 57 56" fill="none" xmlns="http://www.w3.org/2000/svg">
<path fill-rule="evenodd" clip-rule="evenodd" d="M13.0471 14.5586C16.9195 10.0807 23.2939 10.0807 27.1663 14.5586L28.4998 16.1006L29.8333 14.5586C33.7057 10.0807 40.0801 10.0807 43.9525 14.5586C47.165 18.2733 47.7241 24.0924 44.7577 28.2207C43.4538 30.0354 41.8714 32.094 40.0501 34.2C37.2772 37.4065 34.6284 39.9763 32.6709 41.7463C31.6916 42.6318 30.8839 43.3185 30.3181 43.786C30.0352 44.0197 29.8127 44.1988 29.6594 44.3205C29.5827 44.3814 29.5233 44.428 29.4823 44.46L29.4348 44.4969L29.4216 44.5071L29.4164 44.511C29.4163 44.5112 29.4156 44.5117 28.5644 43.4002C27.7269 44.5221 27.7267 44.5219 27.7265 44.5218L27.7207 44.5174L27.7071 44.5072L27.6582 44.4702C27.6161 44.4382 27.5552 44.3915 27.4765 44.3305C27.3193 44.2086 27.0914 44.0294 26.802 43.7954C26.2233 43.3275 25.3984 42.6403 24.4019 41.754C22.4101 39.9828 19.7258 37.4104 16.9495 34.2C15.1282 32.094 13.5458 30.0354 12.2419 28.2207C9.27547 24.0924 9.83463 18.2733 13.0471 14.5586ZM28.5644 43.4002L27.7265 44.5218L28.5752 45.1553L29.4164 44.511L28.5644 43.4002ZM28.5541 41.6113C29.0902 41.168 29.8589 40.5141 30.793 39.6695C32.6851 37.9586 35.2497 35.4704 37.9322 32.3684C39.6891 30.3368 41.2197 28.3461 42.4839 26.5868C44.6278 23.6031 44.2765 19.2138 41.8346 16.3901C39.0789 13.2036 34.7069 13.2036 31.9512 16.3901L28.4998 20.3812L25.0484 16.3901C22.2927 13.2035 17.9207 13.2036 15.165 16.3901C12.7231 19.2138 12.3718 23.6031 14.5158 26.5868C15.7799 28.3461 17.3105 30.3368 19.0674 32.3684C21.7466 35.4665 24.3402 37.9521 26.2626 39.6617C27.2183 40.5117 28.0063 41.1682 28.5541 41.6113Z" fill="#FC5241"/>
<rect x="30.7002" y="28.2002" width="19.6" height="19.6" rx="9.8" fill="#F3F3F3"/>
<path fill-rule="evenodd" clip-rule="evenodd" d="M32.7002 38.0002C32.7002 33.6924 36.1924 30.2002 40.5002 30.2002C44.808 30.2002 48.3002 33.6924 48.3002 38.0002C48.3002 42.308 44.808 45.8002 40.5002 45.8002C36.1924 45.8002 32.7002 42.308 32.7002 38.0002ZM37.676 35.1759C37.9103 34.9416 38.2902 34.9416 38.5246 35.1759L40.5003 37.1516L42.476 35.1759C42.7103 34.9416 43.0902 34.9416 43.3246 35.1759C43.5589 35.4102 43.5589 35.7901 43.3246 36.0244L41.3488 38.0001L43.3246 39.9759C43.5589 40.2102 43.5589 40.5901 43.3246 40.8244C43.0902 41.0587 42.7103 41.0587 42.476 40.8244L40.5003 38.8487L38.5246 40.8244C38.2902 41.0587 37.9103 41.0587 37.676 40.8244C37.4417 40.5901 37.4417 40.2102 37.676 39.9759L39.6518 38.0001L37.676 36.0244C37.4417 35.7901 37.4417 35.4102 37.676 35.1759Z" fill="#FC5241"/>
</svg>
