<svg width="24" height="25" viewBox="0 0 24 25" fill="none" xmlns="http://www.w3.org/2000/svg">
<path fill-rule="evenodd" clip-rule="evenodd" d="M16.3557 6.54704C15.7855 6.50045 15.0581 6.49999 14.0401 6.49999H10.5601C9.54555 6.49999 8.66131 6.50026 7.93476 6.54776C7.18729 6.59662 6.70347 6.69177 6.43813 6.82697C5.87364 7.11459 5.4147 7.57353 5.12708 8.13802C4.98117 8.42438 4.89317 8.78117 4.84715 9.34437C4.80056 9.91458 4.8001 10.642 4.8001 11.66V13.34C4.8001 14.358 4.80056 15.0854 4.84715 15.6556C4.89317 16.2188 4.98117 16.5756 5.12708 16.862C5.4147 17.4264 5.87364 17.8854 6.43813 18.173C6.70347 18.3082 7.18729 18.4034 7.93476 18.4522C8.66132 18.4997 9.54555 18.5 10.5601 18.5H14.0401C15.0581 18.5 15.7855 18.4995 16.3557 18.4529C16.9189 18.4069 17.2757 18.3189 17.5621 18.173C18.1266 17.8854 18.5855 17.4264 18.8731 16.862C19.019 16.5756 19.107 16.2188 19.153 15.6556C19.1996 15.0854 19.2001 14.358 19.2001 13.34V11.66C19.2001 10.642 19.1996 9.91458 19.153 9.34437C19.107 8.78117 19.019 8.42438 18.8731 8.13802C18.5855 7.57353 18.1266 7.11459 17.5621 6.82697C17.2757 6.68106 16.9189 6.59306 16.3557 6.54704ZM16.4534 5.35103C17.0908 5.40311 17.6231 5.51129 18.1069 5.75776C18.8971 6.16043 19.5397 6.80295 19.9423 7.59323C20.1888 8.07695 20.297 8.60924 20.3491 9.24666C20.4001 9.87144 20.4001 10.6478 20.4001 11.6333V13.3666C20.4001 14.3522 20.4001 15.1285 20.3491 15.7533C20.297 16.3907 20.1888 16.923 19.9423 17.4067C19.5397 18.197 18.8971 18.8395 18.1069 19.2422C17.6231 19.4887 17.0908 19.5969 16.4534 19.6489C15.8286 19.7 15.0523 19.7 14.0668 19.7H10.544C9.54849 19.7 8.62639 19.7 7.85649 19.6497C7.10334 19.6004 6.39808 19.4994 5.89334 19.2422C5.10306 18.8395 4.46054 18.197 4.05787 17.4067C3.8114 16.923 3.70322 16.3907 3.65114 15.7533C3.60009 15.1285 3.60009 14.3522 3.6001 13.3666V11.6333C3.60009 10.6478 3.60009 9.87144 3.65114 9.24666C3.70322 8.60924 3.8114 8.07695 4.05787 7.59323C4.46054 6.80295 5.10306 6.16043 5.89334 5.75776C6.39808 5.50058 7.10334 5.39955 7.85649 5.35031C8.62639 5.29999 9.54848 5.29999 10.5439 5.29999L14.0667 5.29999C15.0523 5.29998 15.8286 5.29998 16.4534 5.35103ZM7.00087 8.56717C7.18468 8.29145 7.5572 8.21695 7.83292 8.40076L10.336 10.0695C10.8308 10.3994 11.1626 10.6196 11.4371 10.7624C11.6987 10.8984 11.8584 10.9367 12.0001 10.9367C12.1418 10.9367 12.3015 10.8984 12.563 10.7624C12.8376 10.6196 13.1694 10.3994 13.6642 10.0695L16.1673 8.40076C16.443 8.21695 16.8155 8.29145 16.9993 8.56717C17.1831 8.84289 17.1086 9.21541 16.8329 9.39922L14.3032 11.0857C13.8419 11.3932 13.456 11.6505 13.1169 11.827C12.7581 12.0136 12.4034 12.1367 12.0001 12.1367C11.5968 12.1367 11.2421 12.0136 10.8833 11.827C10.5441 11.6505 10.1583 11.3932 9.69697 11.0857L7.16728 9.39922C6.89156 9.21541 6.81706 8.84289 7.00087 8.56717Z" fill="#171523"/>
</svg>
