<svg width="24" height="25" viewBox="0 0 24 25" fill="none" xmlns="http://www.w3.org/2000/svg">
<path fill-rule="evenodd" clip-rule="evenodd" d="M11.9174 4.09994C11.9445 4.09996 11.972 4.09997 11.9999 4.09997C12.0278 4.09997 12.0553 4.09996 12.0825 4.09994C12.5597 4.09968 12.9141 4.09949 13.2211 4.18175C14.0493 4.40367 14.6962 5.05059 14.9181 5.87881C15.0004 6.1858 15.0002 6.54019 14.9999 7.01743C14.9999 7.04454 14.9999 7.07205 14.9999 7.09997V7.18662C15.4879 7.24835 15.9133 7.35733 16.3067 7.55774C17.0969 7.96041 17.7395 8.60293 18.1421 9.39321C18.3886 9.87693 18.4968 10.4092 18.5489 11.0466C18.5999 11.6714 18.5999 12.4478 18.5999 13.4333V13.9666C18.5999 14.9522 18.5999 15.7285 18.5489 16.3533C18.4968 16.9907 18.3886 17.523 18.1421 18.0067C17.7395 18.797 17.0969 19.4395 16.3067 19.8422C15.8229 20.0887 15.2906 20.1969 14.6532 20.2489C14.0285 20.3 13.2521 20.3 12.2666 20.3H11.7332C10.7477 20.3 9.97135 20.3 9.34657 20.2489C8.70916 20.1969 8.17686 20.0887 7.69314 19.8422C6.90286 19.4395 6.26034 18.797 5.85768 18.0067C5.61121 17.523 5.50302 16.9907 5.45094 16.3533C5.3999 15.7285 5.3999 14.9521 5.3999 13.9666V13.4333C5.3999 12.4478 5.3999 11.6714 5.45094 11.0466C5.50302 10.4092 5.61121 9.87693 5.85768 9.39321C6.26034 8.60293 6.90286 7.96041 7.69314 7.55774C8.08648 7.35733 8.51193 7.24835 8.9999 7.18662V7.09997C8.9999 7.07205 8.99989 7.04454 8.99987 7.01742C8.99961 6.54019 8.99942 6.1858 9.08168 5.87881C9.3036 5.05059 9.95052 4.40367 10.7787 4.18175C11.0857 4.09949 11.4401 4.09968 11.9174 4.09994ZM10.1999 7.11035C10.6465 7.09997 11.1537 7.09997 11.7333 7.09997H12.2666C12.8461 7.09997 13.3533 7.09997 13.7999 7.11035V7.09997C13.7999 6.50336 13.7947 6.32276 13.759 6.18939C13.6481 5.77528 13.3246 5.45182 12.9105 5.34086C12.7771 5.30513 12.5965 5.29997 11.9999 5.29997C11.4033 5.29997 11.2227 5.30513 11.0893 5.34086C10.6752 5.45182 10.3518 5.77528 10.2408 6.18939C10.2051 6.32276 10.1999 6.50336 10.1999 7.09997V7.11035ZM9.44429 8.34703C8.88109 8.39304 8.52429 8.48104 8.23793 8.62695C7.67344 8.91457 7.2145 9.37351 6.92688 9.938C6.78097 10.2244 6.69297 10.5812 6.64696 11.1444C6.60037 11.7146 6.5999 12.442 6.5999 13.46V13.94C6.5999 14.958 6.60037 15.6854 6.64696 16.2556C6.69297 16.8188 6.78098 17.1756 6.92688 17.4619C7.2145 18.0264 7.67344 18.4854 8.23793 18.773C8.52429 18.9189 8.88109 19.0069 9.44429 19.0529C10.0145 19.0995 10.7419 19.1 11.7599 19.1H12.2399C13.2579 19.1 13.9853 19.0995 14.5555 19.0529C15.1187 19.0069 15.4755 18.9189 15.7619 18.773C16.3264 18.4854 16.7853 18.0264 17.0729 17.4619C17.2188 17.1756 17.3068 16.8188 17.3528 16.2556C17.3994 15.6854 17.3999 14.958 17.3999 13.94V13.46C17.3999 12.442 17.3994 11.7146 17.3528 11.1444C17.3068 10.5812 17.2188 10.2244 17.0729 9.938C16.7853 9.37351 16.3264 8.91457 15.7619 8.62695C15.4755 8.48104 15.1187 8.39304 14.5555 8.34703C13.9853 8.30044 13.2579 8.29997 12.2399 8.29997H11.7599C10.7419 8.29997 10.0145 8.30044 9.44429 8.34703ZM11.9999 11.9C11.2975 11.9 10.7999 12.4218 10.7999 12.98C10.7999 13.197 10.8708 13.4009 10.9981 13.574C10.9989 13.5746 11.0001 13.5757 11.0017 13.577C11.0173 13.5898 11.0666 13.6306 11.0906 13.6516C11.1284 13.6848 11.1937 13.7443 11.2519 13.8233C11.3078 13.8993 11.3999 14.0504 11.3999 14.2584V14.9H12.5999V14.2584C12.5999 14.0504 12.692 13.8993 12.7479 13.8233C12.8061 13.7443 12.8714 13.6848 12.9092 13.6516C12.9332 13.6306 12.9824 13.5899 12.998 13.577C12.9996 13.5757 13.0009 13.5747 13.0017 13.574C13.129 13.4009 13.1999 13.197 13.1999 12.98C13.1999 12.4218 12.7023 11.9 11.9999 11.9ZM9.5999 12.98C9.5999 11.6824 10.7141 10.7 11.9999 10.7C13.2857 10.7 14.3999 11.6824 14.3999 12.98C14.3999 13.4888 14.224 13.9568 13.9327 14.3322C13.9003 14.374 13.8679 14.4071 13.8441 14.4298C13.8287 14.4447 13.8135 14.4584 13.7999 14.4702V15.08C13.7999 15.6433 13.3432 16.1 12.7799 16.1H11.2199C10.6566 16.1 10.1999 15.6433 10.1999 15.08V14.4702C10.1863 14.4584 10.1712 14.4447 10.1557 14.4298C10.1319 14.4071 10.0995 14.374 10.0671 14.3322C9.77579 13.9568 9.5999 13.4888 9.5999 12.98Z" fill="#171523"/>
</svg>
