<svg width="32" height="32" viewBox="0 0 32 32" fill="none" xmlns="http://www.w3.org/2000/svg">
<path fill-rule="evenodd" clip-rule="evenodd" d="M16.0002 7.19961C12.0476 7.19961 8.8002 10.5151 8.8002 14.6592C8.8002 15.441 9.0957 16.3662 9.63392 17.3813C10.167 18.3868 10.9057 19.4202 11.7148 20.4025C13.3132 22.3429 15.1277 24.0136 16.0002 24.7814C16.8727 24.0136 18.6872 22.3429 20.2856 20.4025C21.0947 19.4202 21.8334 18.3868 22.3665 17.3813C22.9047 16.3662 23.2002 15.441 23.2002 14.6592C23.2002 10.5151 19.9528 7.19961 16.0002 7.19961ZM7.2002 14.6592C7.2002 9.67997 11.1162 5.59961 16.0002 5.59961C20.8842 5.59961 24.8002 9.67997 24.8002 14.6592C24.8002 15.8123 24.376 17.0068 23.7801 18.1308C23.179 19.2645 22.3692 20.3895 21.5206 21.4197C19.8232 23.4803 17.9107 25.2332 17.0241 26.0116C16.4349 26.5289 15.5655 26.5289 14.9763 26.0116C14.0897 25.2332 12.1772 23.4803 10.4798 21.4197C9.63123 20.3895 8.82137 19.2645 8.22031 18.1308C7.6244 17.0068 7.2002 15.8123 7.2002 14.6592ZM16.0002 11.3647C14.9994 11.3647 14.1335 12.2189 14.1335 13.3414C14.1335 14.4639 14.9994 15.3181 16.0002 15.3181C17.0009 15.3181 17.8669 14.4639 17.8669 13.3414C17.8669 12.2189 17.0009 11.3647 16.0002 11.3647ZM12.5335 13.3414C12.5335 11.3968 14.0554 9.76468 16.0002 9.76468C17.945 9.76468 19.4669 11.3968 19.4669 13.3414C19.4669 15.286 17.945 16.9181 16.0002 16.9181C14.0554 16.9181 12.5335 15.286 12.5335 13.3414Z" fill="black"/>
</svg>
