<svg width="24" height="25" viewBox="0 0 24 25" fill="none" xmlns="http://www.w3.org/2000/svg">
<path d="M8.6339 10.7853C8.6339 10.4066 8.95261 10.0996 9.34576 10.0996H17.2881C17.6813 10.0996 18 10.4066 18 10.7853C18 11.164 17.6813 11.471 17.2881 11.471H9.34576C8.95261 11.471 8.6339 11.164 8.6339 10.7853Z" fill="black"/>
<path d="M7.35593 10.7853C7.35593 11.164 7.0524 11.471 6.67797 11.471C6.30354 11.471 6 11.164 6 10.7853C6 10.4066 6.30354 10.0996 6.67797 10.0996C7.0524 10.0996 7.35593 10.4066 7.35593 10.7853Z" fill="black"/>
<path d="M10.6678 14.2139C10.6678 13.8352 10.9865 13.5282 11.3797 13.5282H17.2881C17.6813 13.5282 18 13.8352 18 14.2139C18 14.5926 17.6813 14.8996 17.2881 14.8996H11.3797C10.9865 14.8996 10.6678 14.5926 10.6678 14.2139Z" fill="black"/>
<path d="M9.38983 14.2139C9.38983 14.5926 9.0863 14.8996 8.71186 14.8996C8.33743 14.8996 8.0339 14.5926 8.0339 14.2139C8.0339 13.8352 8.33743 13.5282 8.71186 13.5282C9.0863 13.5282 9.38983 13.8352 9.38983 14.2139Z" fill="black"/>
</svg>
