<svg width="16" height="15" viewBox="0 0 16 15" fill="none" xmlns="http://www.w3.org/2000/svg">
<path fill-rule="evenodd" clip-rule="evenodd" d="M8.00019 0.899902C8.33157 0.899902 8.60019 1.16853 8.60019 1.4999V2.6999C8.60019 3.03127 8.33157 3.2999 8.00019 3.2999C7.66882 3.2999 7.40019 3.03127 7.40019 2.6999V1.4999C7.40019 1.16853 7.66882 0.899902 8.00019 0.899902ZM0.200195 5.6999C0.200195 3.40363 1.99328 1.4999 4.25619 1.4999H5.98419C6.31557 1.4999 6.58419 1.76853 6.58419 2.0999C6.58419 2.43127 6.31557 2.6999 5.98419 2.6999H4.25619C2.70172 2.6999 1.4002 4.01973 1.4002 5.6999V9.8999C1.4002 11.5801 2.70172 12.8999 4.25619 12.8999H11.7442C13.2987 12.8999 14.6002 11.5801 14.6002 9.8999V5.6999C14.6002 4.01973 13.2987 2.6999 11.7442 2.6999H10.0162C9.68482 2.6999 9.41619 2.43127 9.41619 2.0999C9.41619 1.76853 9.68482 1.4999 10.0162 1.4999H11.7439C14.0068 1.4999 15.8002 3.40363 15.8002 5.6999V9.8999C15.8002 12.1962 14.0071 14.0999 11.7442 14.0999H4.25619C1.99328 14.0999 0.200195 12.1962 0.200195 9.8999V5.6999ZM3.65619 6.5999C3.65619 6.26853 3.92482 5.9999 4.25619 5.9999H11.1682C11.4996 5.9999 11.7682 6.26853 11.7682 6.5999C11.7682 6.93127 11.4996 7.1999 11.1682 7.1999H4.25619C3.92482 7.1999 3.65619 6.93127 3.65619 6.5999ZM3.65619 8.9999C3.65619 8.66853 3.92482 8.3999 4.25619 8.3999H8.86419C9.19557 8.3999 9.46419 8.66853 9.46419 8.9999C9.46419 9.33127 9.19557 9.5999 8.86419 9.5999H4.25619C3.92482 9.5999 3.65619 9.33127 3.65619 8.9999Z" fill="black"/>
</svg>
