<svg width="24" height="25" viewBox="0 0 24 25" fill="none" xmlns="http://www.w3.org/2000/svg">
<path fill-rule="evenodd" clip-rule="evenodd" d="M10.2378 5.38368C11.2254 4.47237 12.7741 4.47237 13.7617 5.38368C14.0598 5.65873 14.4774 5.79182 14.896 5.73689C16.2331 5.56147 17.5076 6.43085 17.7563 7.75667C17.8274 8.13581 18.0759 8.472 18.4433 8.6623C19.648 9.28626 20.1493 10.7333 19.5414 11.9481C19.3665 12.2976 19.3665 12.7028 19.5414 13.0523C20.1493 14.2671 19.648 15.7141 18.4433 16.3381C18.0759 16.5284 17.8274 16.8646 17.7563 17.2437C17.5076 18.5695 16.2331 19.4389 14.896 19.2635C14.4774 19.2086 14.0598 19.3417 13.7617 19.6167C12.7741 20.528 11.2254 20.528 10.2378 19.6167C9.93975 19.3417 9.52215 19.2086 9.10348 19.2635C7.76641 19.4389 6.49193 18.5695 6.24323 17.2437C6.17211 16.8646 5.92364 16.5284 5.55622 16.3381C4.3515 15.7141 3.85025 14.2671 4.45814 13.0523C4.63302 12.7028 4.63302 12.2976 4.45814 11.9481C3.85025 10.7333 4.3515 9.28626 5.55622 8.6623C5.92364 8.472 6.17211 8.13581 6.24323 7.75667C6.49193 6.43085 7.76641 5.56147 9.10348 5.73689C9.52215 5.79182 9.93976 5.65873 10.2378 5.38368ZM12.9479 6.26557C12.42 5.77841 11.5795 5.77841 11.0516 6.26557C10.4869 6.78668 9.71219 7.02704 8.94738 6.92669C8.20567 6.82938 7.54725 7.3137 7.42266 7.97791C7.28126 8.73173 6.79282 9.37323 6.10811 9.72786C5.46475 10.0611 5.2277 10.8044 5.53128 11.4111C5.87531 12.0986 5.87531 12.9018 5.53128 13.5893C5.2277 14.196 5.46475 14.9393 6.10811 15.2725C6.79282 15.6272 7.28126 16.2687 7.42266 17.0225C7.54725 17.6867 8.20567 18.171 8.94738 18.0737C9.71219 17.9734 10.4869 18.2137 11.0516 18.7348C11.5795 19.222 12.42 19.222 12.9479 18.7348C13.5126 18.2137 14.2873 17.9734 15.0521 18.0737C15.7938 18.171 16.4523 17.6867 16.5769 17.0225C16.7183 16.2687 17.2067 15.6272 17.8914 15.2725C18.5348 14.9393 18.7718 14.196 18.4682 13.5893C18.1242 12.9018 18.1242 12.0986 18.4682 11.4111C18.7718 10.8044 18.5348 10.0611 17.8914 9.72786C17.2067 9.37323 16.7183 8.73173 16.5769 7.97791L17.1666 7.86729L16.5769 7.97791C16.4523 7.3137 15.7938 6.82938 15.0521 6.92669C14.2873 7.02704 13.5126 6.78668 12.9479 6.26557ZM8.39976 10.1002C8.39976 9.43745 8.93701 8.9002 9.59976 8.9002C10.2625 8.9002 10.7998 9.43745 10.7998 10.1002C10.7998 10.7629 10.2625 11.3002 9.59976 11.3002C8.93701 11.3002 8.39976 10.7629 8.39976 10.1002ZM15.3983 9.07593C15.6327 9.31025 15.6327 9.69015 15.3983 9.92446L9.42402 15.8988C9.18971 16.1331 8.80981 16.1331 8.57549 15.8988C8.34118 15.6645 8.34118 15.2846 8.57549 15.0503L14.5498 9.07593C14.7841 8.84162 15.164 8.84162 15.3983 9.07593ZM13.1998 14.9002C13.1998 14.2375 13.737 13.7002 14.3998 13.7002C15.0625 13.7002 15.5998 14.2375 15.5998 14.9002C15.5998 15.5629 15.0625 16.1002 14.3998 16.1002C13.737 16.1002 13.1998 15.5629 13.1998 14.9002Z" fill="#171523"/>
</svg>
