<svg width="24" height="25" viewBox="0 0 24 25" fill="none" xmlns="http://www.w3.org/2000/svg">
<path fill-rule="evenodd" clip-rule="evenodd" d="M12 6.49999C10.107 6.49999 8.55 8.0724 8.55 10.04C8.55 12.0076 10.107 13.58 12 13.58C13.893 13.58 15.45 12.0076 15.45 10.04C15.45 8.0724 13.893 6.49999 12 6.49999ZM9.25855 13.8694C8.09938 13.0051 7.35 11.6078 7.35 10.04C7.35 7.43466 9.41951 5.29999 12 5.29999C14.5805 5.29999 16.65 7.43466 16.65 10.04C16.65 11.6282 15.881 13.0415 14.6959 13.9029C15.8876 14.2125 16.699 14.7432 17.2198 15.5023C17.6309 16.1016 17.8196 16.7885 17.9106 17.4911C18 18.1807 18 18.9318 18 19.6765V19.7C18 20.0314 17.7314 20.3 17.4 20.3C17.0686 20.3 16.8 20.0314 16.8 19.7C16.8 18.9281 16.799 18.2506 16.7206 17.6453C16.6429 17.0459 16.4941 16.5658 16.2302 16.1812C15.725 15.4447 14.6345 14.8397 11.9933 14.78C9.35912 14.781 8.27527 15.3881 7.77214 16.1327C7.50707 16.525 7.35753 17.017 7.27954 17.6274C7.20092 18.2427 7.2 18.9285 7.2 19.7C7.2 20.0314 6.93137 20.3 6.6 20.3C6.26863 20.3 6 20.0314 6 19.7L6 19.6773C5.99999 18.9318 5.99998 18.1737 6.08921 17.4753C6.17997 16.7649 6.36793 16.0675 6.77786 15.4608C7.29247 14.6993 8.09106 14.1685 9.25855 13.8694Z" fill="#171523"/>
</svg>
