<svg width="40" height="40" viewBox="0 0 40 40" fill="none" xmlns="http://www.w3.org/2000/svg">
<path fill-rule="evenodd" clip-rule="evenodd" d="M19.9625 7H20.0375C21.8695 7 23.2956 6.99999 24.4453 7.07844C25.6119 7.15803 26.5669 7.32172 27.4442 7.68508C29.6494 8.59853 31.4015 10.3506 32.3149 12.5558C32.6783 13.4331 32.842 14.3881 32.9216 15.5547C33 16.7044 33 18.1304 33 19.9624V20.0376C33 21.8696 33 23.2956 32.9216 24.4453C32.842 25.6119 32.6783 26.5669 32.3149 27.4442C31.4015 29.6494 29.6494 31.4015 27.4442 32.3149C26.5669 32.6783 25.6119 32.842 24.4453 32.9216C23.2956 33 21.8696 33 20.0376 33H19.9624C18.1304 33 16.7044 33 15.5547 32.9216C14.3881 32.842 13.4331 32.6783 12.5558 32.3149C10.3506 31.4015 8.59853 29.6494 7.68508 27.4442C7.32172 26.5669 7.15803 25.6119 7.07844 24.4453C6.99999 23.2956 7 21.8695 7 20.0375V19.9625C7 18.1305 6.99999 16.7044 7.07844 15.5547C7.15803 14.3881 7.32172 13.4331 7.68508 12.5558C8.59853 10.3506 10.3506 8.59853 12.5558 7.68508C13.4331 7.32172 14.3881 7.15803 15.5547 7.07844C16.7044 6.99999 18.1305 7 19.9625 7ZM15.6908 9.0738C14.6261 9.14645 13.9141 9.28725 13.3212 9.53284C11.606 10.2433 10.2433 11.606 9.53284 13.3212C9.28725 13.9141 9.14645 14.6261 9.0738 15.6908C9.00054 16.7645 9 18.1226 9 20C9 21.8774 9.00054 23.2355 9.0738 24.3092C9.14645 25.3739 9.28725 26.0859 9.53284 26.6788C10.043 27.9105 10.8896 28.9605 11.9616 29.7177C11.9793 29.2727 12.0105 28.8302 12.0656 28.4002C12.1909 27.4227 12.4471 26.4383 13.0003 25.5679C13.6533 24.5407 14.6351 23.7925 16.0194 23.3349C14.6295 22.1566 13.75 20.376 13.75 18.4C13.75 14.8921 16.5219 12 20 12C23.4781 12 26.25 14.8921 26.25 18.4C26.25 20.4011 25.348 22.2018 23.9274 23.3796C25.3384 23.8477 26.3353 24.596 26.9962 25.6212C27.5512 26.4821 27.8084 27.4529 27.9341 28.4205C27.9891 28.8433 28.0203 29.2789 28.0381 29.7179C29.1102 28.9607 29.9569 27.9106 30.4672 26.6788C30.7128 26.0859 30.8536 25.3739 30.9262 24.3092C30.9995 23.2355 31 21.8774 31 20C31 18.1226 30.9995 16.7645 30.9262 15.6908C30.8536 14.6261 30.7128 13.9141 30.4672 13.3212C29.7567 11.606 28.394 10.2433 26.6788 9.53284C26.0859 9.28725 25.3739 9.14645 24.3092 9.0738C23.2355 9.00054 21.8774 9 20 9C18.1226 9 16.7645 9.00054 15.6908 9.0738ZM26.0591 30.6736C26.0529 29.953 26.0305 29.2911 25.9508 28.6783C25.8463 27.8742 25.6507 27.2252 25.3152 26.7049C24.6917 25.7376 23.3483 24.877 19.9888 24.8C16.6417 24.8019 15.309 25.6642 14.6882 26.6408C14.3511 27.1711 14.1544 27.8359 14.0494 28.6545C13.9695 29.2779 13.947 29.949 13.9408 30.6736C14.4108 30.7966 14.97 30.877 15.6908 30.9262C16.7645 30.9995 18.1226 31 20 31C21.8774 31 23.2355 30.9995 24.3092 30.9262C25.03 30.877 25.5892 30.7966 26.0591 30.6736ZM20 22.8C22.3208 22.8 24.25 20.8568 24.25 18.4C24.25 15.9432 22.3208 14 20 14C17.6792 14 15.75 15.9432 15.75 18.4C15.75 20.8568 17.6792 22.8 20 22.8Z" fill="#171523"/>
</svg>
