<svg width="26" height="26" viewBox="0 0 26 26" fill="none" xmlns="http://www.w3.org/2000/svg">
<path fill-rule="evenodd" clip-rule="evenodd" d="M12.9625 5.06099e-08H13.0375C14.8695 -3.64488e-06 16.2956 -6.50436e-06 17.4453 0.0784401C18.6119 0.158035 19.5669 0.321719 20.4442 0.685084C22.6494 1.59853 24.4015 3.3506 25.3149 5.55585C25.6783 6.43309 25.842 7.38811 25.9216 8.55468C26 9.70443 26 11.1304 26 12.9624V13.0376C26 14.8696 26 16.2956 25.9216 17.4453C25.842 18.6119 25.6783 19.5669 25.3149 20.4442C24.4015 22.6494 22.6494 24.4015 20.4442 25.3149C19.5669 25.6783 18.6119 25.842 17.4453 25.9216C16.2956 26 14.8696 26 13.0376 26H12.9624C11.1304 26 9.70443 26 8.55468 25.9216C7.38811 25.842 6.43309 25.6783 5.55585 25.3149C3.3506 24.4015 1.59853 22.6494 0.685084 20.4442C0.321719 19.5669 0.158035 18.6119 0.0784401 17.4453C-6.50436e-06 16.2956 -3.64488e-06 14.8695 5.06099e-08 13.0375V12.9625C-3.64488e-06 11.1305 -6.50436e-06 9.70443 0.0784401 8.55468C0.158035 7.38811 0.321719 6.43309 0.685084 5.55585C1.59853 3.3506 3.3506 1.59853 5.55585 0.685085C6.43309 0.321719 7.38811 0.158035 8.55468 0.0784401C9.70443 -6.50436e-06 11.1305 -3.64488e-06 12.9625 5.06099e-08ZM8.69083 2.0738C7.62609 2.14645 6.91414 2.28725 6.32122 2.53284C4.60602 3.2433 3.2433 4.60602 2.53284 6.32122C2.28725 6.91414 2.14645 7.62609 2.0738 8.69083C2.00054 9.76455 2 11.1226 2 13C2 14.8774 2.00054 16.2355 2.0738 17.3092C2.14645 18.3739 2.28725 19.0859 2.53284 19.6788C3.04305 20.9105 3.88964 21.9605 4.96159 22.7177C4.97927 22.2727 5.0105 21.8302 5.06563 21.4002C5.19095 20.4227 5.44706 19.4383 6.00033 18.5679C6.6533 17.5407 7.63507 16.7925 9.01936 16.3349C7.62952 15.1566 6.75 13.376 6.75 11.4C6.75 7.89212 9.52185 5 13 5C16.4781 5 19.25 7.89212 19.25 11.4C19.25 13.4011 18.348 15.2018 16.9274 16.3796C18.3384 16.8477 19.3353 17.596 19.9962 18.6212C20.5512 19.4821 20.8084 20.4529 20.9341 21.4205C20.9891 21.8433 21.0203 22.2789 21.0381 22.7179C22.1102 21.9607 22.9569 20.9106 23.4672 19.6788C23.7128 19.0859 23.8536 18.3739 23.9262 17.3092C23.9995 16.2355 24 14.8774 24 13C24 11.1226 23.9995 9.76455 23.9262 8.69083C23.8536 7.62609 23.7128 6.91414 23.4672 6.32122C22.7567 4.60602 21.394 3.2433 19.6788 2.53284C19.0859 2.28725 18.3739 2.14645 17.3092 2.0738C16.2355 2.00054 14.8774 2 13 2C11.1226 2 9.76455 2.00054 8.69083 2.0738ZM19.0591 23.6736C19.0529 22.953 19.0305 22.2911 18.9508 21.6783C18.8463 20.8742 18.6507 20.2252 18.3152 19.7049C17.6917 18.7376 16.3483 17.877 12.9888 17.8C9.64172 17.8019 8.30895 18.6642 7.6882 19.6408C7.3511 20.1711 7.15435 20.8359 7.04939 21.6545C6.96947 22.2779 6.94703 22.949 6.94084 23.6736C7.41082 23.7966 7.96997 23.877 8.69083 23.9262C9.76455 23.9995 11.1226 24 13 24C14.8774 24 16.2355 23.9995 17.3092 23.9262C18.03 23.877 18.5892 23.7966 19.0591 23.6736ZM13 15.8C15.3208 15.8 17.25 13.8568 17.25 11.4C17.25 8.9432 15.3208 7 13 7C10.6792 7 8.75 8.9432 8.75 11.4C8.75 13.8568 10.6792 15.8 13 15.8Z" fill="#171523"/>
</svg>
