<svg width="16" height="12" viewBox="0 0 16 12" fill="none" xmlns="http://www.w3.org/2000/svg">
<path fill-rule="evenodd" clip-rule="evenodd" d="M5.56778 0.500017C5.61004 0.500025 5.65286 0.500034 5.69623 0.500034H10.3042C10.3476 0.500034 10.3904 0.500025 10.4327 0.500017C11.6497 0.499769 12.4108 0.499614 13.0446 0.710546C14.2357 1.10694 15.1763 2.02588 15.5838 3.20285C15.8007 3.8293 15.8005 4.58098 15.8003 5.76938C15.8002 5.81235 15.8002 5.8559 15.8002 5.90003V5.909C15.8002 6.55939 15.8002 7.21247 15.7768 7.76985C15.7542 8.30631 15.7083 8.83771 15.5838 9.19722C15.1763 10.3742 14.2357 11.2931 13.0446 11.6895C12.4108 11.9005 11.6497 11.9003 10.4327 11.9001C10.3904 11.9 10.3476 11.9 10.3042 11.9H5.69623C5.65286 11.9 5.61004 11.9 5.56778 11.9001C4.35075 11.9003 3.58969 11.9005 2.95588 11.6895C1.76478 11.2931 0.824185 10.3742 0.416668 9.19722C0.292189 8.83771 0.246269 8.30631 0.223692 7.76985C0.200234 7.21248 0.200234 6.55941 0.200235 5.90901V5.90003C0.200235 5.8559 0.200225 5.81234 0.200215 5.76936C0.199938 4.58097 0.199763 3.8293 0.416668 3.20285C0.824185 2.02588 1.76478 1.10694 2.95588 0.710546C3.58969 0.499614 4.35075 0.499769 5.56778 0.500017ZM5.69623 1.70003C4.30792 1.70003 3.75959 1.70778 3.3348 1.84915C2.49107 2.12994 1.83384 2.7775 1.55062 3.59547C1.40855 4.00578 1.40023 4.53634 1.40023 5.90003C1.40023 6.56078 1.40034 7.18985 1.42263 7.71939C1.4459 8.27241 1.49169 8.6344 1.55062 8.8046C1.83384 9.62257 2.49107 10.2701 3.3348 10.5509C3.75959 10.6923 4.30792 10.7 5.69623 10.7H10.3042C11.6925 10.7 12.2409 10.6923 12.6657 10.5509C13.5094 10.2701 14.1666 9.62257 14.4498 8.8046C14.5088 8.6344 14.5546 8.27241 14.5778 7.71939C14.6001 7.18985 14.6002 6.56078 14.6002 5.90003C14.6002 4.53634 14.5919 4.00578 14.4498 3.59547C14.1666 2.7775 13.5094 2.12994 12.6657 1.84915C12.2409 1.70778 11.6925 1.70003 10.3042 1.70003H5.69623ZM3.20023 5.90003C3.20023 5.56866 3.46886 5.30003 3.80023 5.30003H9.20023C9.53161 5.30003 9.80023 5.56866 9.80023 5.90003C9.80023 6.23141 9.53161 6.50003 9.20023 6.50003H3.80023C3.46886 6.50003 3.20023 6.23141 3.20023 5.90003ZM10.4482 5.90003C10.4482 5.56866 10.7169 5.30003 11.0482 5.30003H12.2002C12.5316 5.30003 12.8002 5.56866 12.8002 5.90003C12.8002 6.23141 12.5316 6.50003 12.2002 6.50003H11.0482C10.7169 6.50003 10.4482 6.23141 10.4482 5.90003ZM3.20023 8.30003C3.20023 7.96866 3.46886 7.70003 3.80023 7.70003H5.00023C5.33161 7.70003 5.60023 7.96866 5.60023 8.30003C5.60023 8.63141 5.33161 8.90003 5.00023 8.90003H3.80023C3.46886 8.90003 3.20023 8.63141 3.20023 8.30003ZM6.20023 8.30003C6.20023 7.96866 6.46886 7.70003 6.80023 7.70003H12.2002C12.5316 7.70003 12.8002 7.96866 12.8002 8.30003C12.8002 8.63141 12.5316 8.90003 12.2002 8.90003H6.80023C6.46886 8.90003 6.20023 8.63141 6.20023 8.30003Z" fill="black"/>
</svg>
