<svg width="32" height="32" viewBox="0 0 32 32" fill="none" xmlns="http://www.w3.org/2000/svg">
<path fill-rule="evenodd" clip-rule="evenodd" d="M14.7284 5.59962C14.7593 5.59963 14.7906 5.59964 14.8223 5.59964H17.177C17.2087 5.59964 17.24 5.59963 17.2709 5.59962C18.0346 5.59943 18.551 5.59931 19.0463 5.7182C19.4841 5.82331 19.9026 5.99668 20.2866 6.23195C20.7208 6.49805 21.0859 6.86337 21.6258 7.40351C21.6476 7.42535 21.6698 7.44748 21.6922 7.46989L21.1265 8.03558L21.6922 7.46989L24.5294 10.3071C24.5518 10.3295 24.5739 10.3516 24.5958 10.3735C25.1359 10.9134 25.5012 11.2785 25.7673 11.7127C26.0026 12.0966 26.176 12.5152 26.2811 12.953C26.4 13.4482 26.3998 13.9647 26.3997 14.7284C26.3996 14.7593 26.3996 14.7906 26.3996 14.8223V17.177C26.3996 17.2087 26.3996 17.24 26.3997 17.2709C26.3998 18.0346 26.4 18.551 26.2811 19.0463C26.176 19.4841 26.0026 19.9026 25.7673 20.2866C25.5012 20.7208 25.1359 21.0859 24.5958 21.6258C24.5739 21.6476 24.5518 21.6698 24.5294 21.6922L21.6922 24.5294C21.6698 24.5518 21.6476 24.5739 21.6258 24.5958C21.0859 25.1359 20.7208 25.5012 20.2866 25.7673C19.9026 26.0026 19.4841 26.176 19.0463 26.2811C18.551 26.4 18.0346 26.3998 17.2709 26.3997C17.24 26.3996 17.2087 26.3996 17.177 26.3996H14.8223C14.7906 26.3996 14.7593 26.3996 14.7284 26.3997C13.9647 26.3998 13.4482 26.4 12.953 26.2811C12.5152 26.176 12.0966 26.0026 11.7127 25.7673C11.2785 25.5012 10.9133 25.1359 10.3734 24.5957C10.3516 24.5739 10.3295 24.5518 10.3071 24.5294L7.4699 21.6922C7.44748 21.6698 7.42535 21.6476 7.40351 21.6258C6.86336 21.0859 6.49805 20.7208 6.23195 20.2866C5.99668 19.9026 5.82331 19.4841 5.7182 19.0463C5.59931 18.551 5.59943 18.0346 5.59962 17.2709C5.59963 17.24 5.59964 17.2087 5.59964 17.177V14.8223C5.59964 14.7906 5.59963 14.7593 5.59962 14.7284C5.59943 13.9647 5.59931 13.4482 5.7182 12.953C5.82331 12.5152 5.99668 12.0966 6.23195 11.7127C6.49805 11.2785 6.86335 10.9134 7.4035 10.3735C7.42534 10.3516 7.44747 10.3295 7.46989 10.3071L10.3071 7.4699C10.3295 7.44748 10.3516 7.42535 10.3735 7.4035C10.9134 6.86335 11.2785 6.49805 11.7127 6.23195C12.0966 5.99668 12.5152 5.82331 12.953 5.7182C13.4482 5.59931 13.9647 5.59943 14.7284 5.59962ZM14.8223 7.19964C13.9304 7.19964 13.6148 7.20478 13.3265 7.27399C13.052 7.33991 12.7895 7.44863 12.5487 7.59617C12.2959 7.75107 12.0692 7.97058 11.4385 8.60127L8.60127 11.4385C7.97058 12.0692 7.75107 12.2959 7.59617 12.5487C7.44863 12.7895 7.33991 13.052 7.27399 13.3265C7.20478 13.6148 7.19964 13.9304 7.19964 14.8223V17.177C7.19964 18.0689 7.20478 18.3845 7.27399 18.6727C7.33991 18.9473 7.44863 19.2098 7.59617 19.4506C7.75107 19.7033 7.97058 19.9301 8.60127 20.5608L11.4385 23.398C12.0692 24.0287 12.2959 24.2482 12.5487 24.4031C12.7895 24.5506 13.052 24.6594 13.3265 24.7253C13.6148 24.7945 13.9304 24.7996 14.8223 24.7996H17.177C18.0689 24.7996 18.3845 24.7945 18.6727 24.7253C18.9473 24.6594 19.2098 24.5506 19.4506 24.4031C19.7033 24.2482 19.9301 24.0287 20.5608 23.398L23.398 20.5608C24.0287 19.9301 24.2482 19.7033 24.4031 19.4506C24.5506 19.2098 24.6594 18.9473 24.7253 18.6727C24.7945 18.3845 24.7996 18.0689 24.7996 17.177V14.8223C24.7996 13.9304 24.7945 13.6148 24.7253 13.3265C24.6594 13.052 24.5506 12.7895 24.4031 12.5487C24.2482 12.2959 24.0287 12.0692 23.398 11.4385L20.5608 8.60127C19.9301 7.97059 19.7033 7.75107 19.4506 7.59617C19.2098 7.44863 18.9473 7.33991 18.6727 7.27399C18.3845 7.20478 18.0689 7.19964 17.177 7.19964H14.8223ZM15.9996 10.3996C16.4415 10.3996 16.7996 10.7578 16.7996 11.1996V17.5996C16.7996 18.0415 16.4415 18.3996 15.9996 18.3996C15.5578 18.3996 15.1996 18.0415 15.1996 17.5996V11.1996C15.1996 10.7578 15.5578 10.3996 15.9996 10.3996Z" fill="black"/>
<path d="M16.7992 20.8C16.7992 21.2418 16.441 21.6 15.9992 21.6C15.5574 21.6 15.1992 21.2418 15.1992 20.8C15.1992 20.3582 15.5574 20 15.9992 20C16.441 20 16.7992 20.3582 16.7992 20.8Z" fill="black"/>
</svg>
